# xmcd
#
# Track frame offsets:
# 150
# 29739
# 43547
# 63360
# 82373
# 100608
# 119283
# 140849
# 154632
# 170600
# 182088
# 199952
# 229973
# 243125
#
# Disc length: 3722 seconds
#
# Revision: 0
# Processed by: cddbd v1.4PL0 Copyright (c) Steve Scherf et al.
# Submitted via: Audion 2.6.0 (http://www.panic.com/audion/)
#
DISCID=c60e880e
DTITLE=The Deal - The Deal
DYEAR=1900
DGENRE=
TTITLE0=1
TTITLE1=2
TTITLE2=3
TTITLE3=4
TTITLE4=5
TTITLE5=6
TTITLE6=7
TTITLE7=8
TTITLE8=9
TTITLE9=10
TTITLE10=11
TTITLE11=12
TTITLE12=13
TTITLE13=14
EXTD=
EXTT0=
EXTT1=
EXTT2=
EXTT3=
EXTT4=
EXTT5=
EXTT6=
EXTT7=
EXTT8=
EXTT9=
EXTT10=
EXTT11=
EXTT12=
EXTT13=
PLAYORDER=
